# xmcd CD database file
#
# Track frame offsets:
#	150
#	17820
#	28018
#	45703
#	58145
#	75843
#	93460
#	99375
#	117003
#	135105
#	172340
#	190158
#	197273
#	204313
#	211428
#	218388
#	225585
#	233383
#
# Disc length: 3206 seconds
#
# Revision: 6
# Processed by: cddbd v1.5.1PL0 Copyright (c) Steve Scherf et al.
# Submitted via: CDex 1.51
#
DISCID=dc0c8412
DTITLE=遠藤正明 - ガ王 〜勇者王誕生! 10連発!!〜
DYEAR=2005
DGENRE=Anime
TTITLE0=遠藤正明＆スリージーズ2005/勇者王誕生! -集大成神話(ギャザリングマイソロジー)ヴァージョン-
TTITLE1=東京フィルハーモニー交響楽団/勇者王誕生! -オーケストラヴァージョン- (田中公平作家生活20周年記念 炎のオーケストラコンサートより)
TTITLE2=遠藤正明/勇者王誕生!
TTITLE3=GGG交響楽団（ピアノ：島健）/勇者王誕生! -ピアノソロ・ヴァージョン-
TTITLE4=遠藤正明/勇者王誕生! -神話(マイソロジー)ヴァージョン-
TTITLE5=※＆&#12937 - -mai&den-/勇者王誕生! -ultimate extra-
TTITLE6=GGG交響楽団/勇者王誕生! -PREVIEW-
TTITLE7=遠藤正明＆GGG少女歌激部隊/勇者王誕生! -究極神話(きゅうきょくマイソロジー)ヴァージョン-
TTITLE8=田中公平/勇者王誕生! -集大成神話(ギャザリングマイソロジー)ヴァージョン- [オリジナルカラオケ]
TTITLE9=遠藤正明＆GGG少女歌激部隊他/勇者王誕生! -究極絶叫(パーフェクトぜっきょう)ヴァージョン-
TTITLE10=歌唱指導：小林清志/勇者王誕生! -歌唱指導付きカラオケ-
TTITLE11=遠藤正明/勇者王誕生! -TVサイズI-
TTITLE12=遠藤正明/勇者王誕生! -TVサイズII-
TTITLE13=遠藤正明/勇者王誕生! -神話(マイソロジー)ヴァージョン- TVサイズ
TTITLE14=遠藤正明＆GGG少女歌激部隊/勇者王誕生! -究極神話(きゅうきょくマイソロジー)ヴァージョン- TVサイズ
TTITLE15=遠藤正明＆スリージーズ2005/勇者王誕生! -集大成神話(ギャザリングマイソロジー)ヴァージョン- TVサイズI
TTITLE16=遠藤正明＆スリージーズ2005/勇者王誕生! -集大成神話(ギャザリングマイソロジー)ヴァージョン- TVサイズII
TTITLE17=田中公平/勇者王誕生! -デモテープ-
EXTD=YEAR: 2005
EXTT0=
EXTT1=
EXTT2=
EXTT3=
EXTT4=
EXTT5=
EXTT6=
EXTT7=
EXTT8=
EXTT9=
EXTT10=
EXTT11=
EXTT12=
EXTT13=
EXTT14=
EXTT15=
EXTT16=
EXTT17=
PLAYORDER=
